<svg width="66" height="26" viewBox="0 0 66 26" fill="none" xmlns="http://www.w3.org/2000/svg"><path d="M54.212 17.061a2.65 2.65 0 00-.248 1.17c0 .897.258 1.547.81 2.042.589.524 1.508.79 2.735.79 1.24 0 2.163-.266 2.746-.79.539-.488.8-1.155.8-2.042a2.655 2.655 0 00-.248-1.17 3.406 3.406 0 00-.74-1.004 5.373 5.373 0 00-1.202-.85 8.772 8.772 0 00-1.356-.575 9.326 9.326 0 00-1.386.574 4.94 4.94 0 00-1.18.84c-.3.287-.549.631-.735 1.015h.004zm5.9-8.609a2.2 2.2 0 00.199-.961 2.022 2.022 0 00-.141-.856 1.874 1.874 0 00-.48-.695c-.454-.416-1.188-.628-2.184-.628-.992 0-1.727.216-2.183.628a1.879 1.879 0 00-.478.696c-.108.27-.156.562-.14.855 0 .373.066.689.198.958.142.295.339.556.579.764.271.237.602.452.989.646a9.14 9.14 0 001.042.424 7.917 7.917 0 001.045-.424c.374-.19.694-.402.979-.646.238-.207.434-.466.575-.76zm5.392 7.39c.33.77.496 1.672.496 2.673 0 1.263-.265 2.368-.774 3.276a6.353 6.353 0 01-2.008 2.19 8.346 8.346 0 01-2.725 1.17 12.98 12.98 0 01-5.987 0 8.342 8.342 0 01-2.706-1.17 6.35 6.35 0 01-2.01-2.193 6.63 6.63 0 01-.771-3.273c0-.994.165-1.888.493-2.66a7.23 7.23 0 011.243-1.973 8.027 8.027 0 011.892-1.554 8.102 8.102 0 01-1.356-1.31c-.827-1.001-1.25-2.26-1.25-3.746 0-.955.208-1.845.618-2.642a5.928 5.928 0 011.634-1.98c.655-.52 1.446-.933 2.342-1.22a9.422 9.422 0 012.874-.428 9.38 9.38 0 012.868.427c.893.288 1.684.697 2.348 1.22a6.025 6.025 0 011.631 1.981 5.72 5.72 0 01.619 2.642c0 1.507-.424 2.777-1.254 3.768a8.04 8.04 0 01-1.353 1.284l.212.126a7.44 7.44 0 011.677 1.4 7.088 7.088 0 011.247 1.991zm-30.4 1.22a2.682 2.682 0 00-.245 1.17c0 .896.258 1.546.81 2.041.589.524 1.509.79 2.736.79 1.243 0 2.166-.266 2.742-.79.542-.484.807-1.155.807-2.042a2.68 2.68 0 00-.252-1.173 3.419 3.419 0 00-.737-1.005 5.356 5.356 0 00-1.2-.85 8.736 8.736 0 00-1.36-.571 9.356 9.356 0 00-1.383.574c-.43.215-.827.503-1.184.84-.3.287-.548.631-.734 1.015zm5.904-8.613c.138-.297.206-.626.198-.958a2.022 2.022 0 00-.141-.856 1.876 1.876 0 00-.48-.695c-.454-.416-1.188-.628-2.18-.628-.996 0-1.73.212-2.183.625a1.876 1.876 0 00-.48.697 2.03 2.03 0 00-.139.857c0 .366.066.689.198.961.143.296.34.556.58.765.277.24.601.448.985.638a9.19 9.19 0 001.042.431 8.175 8.175 0 001.048-.43 4.46 4.46 0 00.973-.643c.239-.208.436-.467.579-.76v-.004zm4.144 5.4a7.03 7.03 0 011.247 1.992c.33.772.496 1.673.496 2.674 0 1.26-.264 2.365-.777 3.276a6.305 6.305 0 01-2.001 2.19 8.305 8.305 0 01-2.729 1.17 12.983 12.983 0 01-5.987 0 8.308 8.308 0 01-2.705-1.17 6.322 6.322 0 01-2.011-2.197 6.598 6.598 0 01-.771-3.27c0-1.004.165-1.901.496-2.665a7.23 7.23 0 011.244-1.967 7.886 7.886 0 011.885-1.554 8.226 8.226 0 01-1.35-1.306c-.83-1.005-1.253-2.268-1.253-3.75 0-.958.208-1.845.622-2.645a5.995 5.995 0 011.627-1.974c.662-.524 1.452-.933 2.345-1.224a9.429 9.429 0 012.878-.427 9.4 9.4 0 012.868.427c.896.288 1.686.7 2.348 1.22a6.137 6.137 0 011.63 1.978c.41.8.616 1.687.616 2.645 0 1.507-.42 2.777-1.257 3.771a8.083 8.083 0 01-1.35 1.281l.212.126a7.354 7.354 0 011.677 1.4zm-26.815-.082c-.413.154-.792.4-1.111.725a3.6 3.6 0 00-.734 1.177c-.182.466-.275 1.016-.275 1.633 0 1.292.285 2.243.847 2.828.582.61 1.392.9 2.484.9.523 0 1.009-.086 1.439-.258.41-.151.785-.395 1.101-.717.316-.32.566-.712.731-1.145.182-.467.275-1.027.275-1.673a5.064 5.064 0 00-.265-1.772 3.073 3.073 0 00-.675-1.102 2.604 2.604 0 00-1.012-.632 4.155 4.155 0 00-2.805.036zm7.304-2.738c.71.667 1.283 1.518 1.703 2.537.42 1.016.632 2.221.632 3.578 0 1.356-.242 2.577-.721 3.628-.477 1.04-1.118 1.927-1.909 2.627a8.125 8.125 0 01-2.669 1.568c-.98.35-2.005.528-3.036.528-1.257 0-2.415-.187-3.44-.557a6.694 6.694 0 01-2.72-1.823 8.327 8.327 0 01-1.696-3.122c-.38-1.21-.572-2.68-.572-4.367 0-1.91.248-3.732.737-5.422a13.965 13.965 0 012.29-4.619c1.034-1.36 2.36-2.476 3.949-3.327 1.577-.843 3.724-1.457 5.788-1.607L25.7.676l-1.058 4.392-.586.054a9.38 9.38 0 00-3.195.843 8.039 8.039 0 00-2.348 1.701A8.462 8.462 0 0016.958 10c.983-.592 2.186-.89 3.586-.89a8.15 8.15 0 012.689.46 6.93 6.93 0 012.408 1.46zM1.568 7.663L0 3.536 8.699.5v24.819h-4.72V6.852l-2.415.81h.004z" fill="#FF5E33"/></svg>