<svg xmlns="http://www.w3.org/2000/svg" viewBox="0 0 1024 1024"><path d="M998.368 672.448C931.04 876.608 738.72 1024 512 1024c-226.72 0-419.04-147.36-486.368-351.552z"></path><path d="M998.56 352.16c16.48 50.272 25.44 104 25.44 159.84 0 56-8.992 109.92-25.6 160.384H25.6C9.024 621.952 0 568 0 512c0-55.84 8.96-109.6 25.44-159.872z" fill="#FFFFFF"></path><path d="M512 0c226.944 0 419.392 147.648 486.56 352.128H25.44C92.608 147.648 285.056 0 512 0z" fill="#00732F"></path><path d="M307.648 42.4v939.2C126.592 902.688 0 722.144 0 512S126.592 121.28 307.648 42.4z" fill="#FF0000"></path></svg>