<svg xmlns="http://www.w3.org/2000/svg" viewBox="0 0 1024 1024"><path d="M512 512m-512 0a512 512 0 1 0 1024 0 512 512 0 1 0-1024 0Z" fill="#003399"></path><path d="M511.872 192l16.704 51.328h54.24l-43.712 31.744 16.448 51.392-43.68-31.744-43.68 31.744 16.704-51.36-43.712-31.744h54.016L511.872 192z m226.304 93.632l-24.48 48.096 38.336 38.368-53.312-8.448-24.704 47.968-8.448-53.344-53.344-8.448 48.128-24.512-8.448-53.344 38.176 38.176 48.096-24.512zM832 511.872l-51.328 16.704v54.24l-31.744-43.712-51.392 16.448 31.744-43.68-31.744-43.68 51.36 16.704 31.744-43.712v54.016l51.36 16.672z m-93.632 226.304l-48.096-24.48-38.368 38.336 8.448-53.312-47.968-24.704 53.344-8.448 8.448-53.344 24.512 48.128 53.344-8.448-38.176 38.176 24.512 48.096zM512.128 832l-16.704-51.328h-54.24l43.712-31.744-16.448-51.392 43.68 31.744 43.68-31.744-16.704 51.36 43.712 31.744h-54.016L512.128 832z m-226.304-93.632l24.48-48.096L272 651.904l53.312 8.448 24.704-47.968 8.448 53.344 53.344 8.448-48.128 24.512 8.448 53.344-38.176-38.176-48.096 24.512zM192 512.128l51.328-16.704v-54.24l31.744 43.712 51.392-16.448-31.744 43.68 31.744 43.68-51.36-16.704-31.744 43.712v-54.016L192 512.128z m93.632-226.304l48.096 24.48L372.096 272l-8.448 53.312 47.968 24.704-53.344 8.448-8.448 53.344-24.512-48.128-53.344 8.448 38.176-38.176-24.512-48.096z" fill="#FFCC00"></path></svg>