<svg xmlns="http://www.w3.org/2000/svg" viewBox="0 0 1024 1024"><path d="M511.936328 511.936008m-511.936008 0a511.936008 511.936008 0 1 0 1023.872016 0 511.936008 511.936008 0 1 0-1023.872016 0Z" fill="#003890"></path><path d="M511.936328 0.127984c44.666417 0 87.989001 5.727284 129.263842 16.445944v367.506062h366.546182c10.526684 40.890889 16.125984 83.797525 16.125984 127.984002 0 56.056993-9.022872 110.00225-25.660792 160.491939H641.232166v334.998125c-41.306837 10.71866-84.629421 16.445944-129.295838 16.445944l2.527684-0.031996h-5.055368a512.543932 512.543932 0 0 1-129.007874-17.021872V672.523935L25.693108 672.555931A511.456068 511.456068 0 0 1 0.00032 512.063992c0-44.186477 5.5993-87.093113 16.125984-127.984002H380.432766V17.181852A512.703912 512.703912 0 0 1 511.936328 0.127984z" fill="#FFFFFF"></path><path d="M146.925954 152.972878L966.279535 748.16248a513.855768 513.855768 0 0 1-108.146482 140.942382L46.042565 299.482565a512.95988 512.95988 0 0 1 100.883389-146.541683z" fill="#FFFFFF"></path><path d="M877.778598 153.83677l0.671916 0.671916-0.671916-0.671916c7.103112 7.231096 13.982252 14.71816 20.63742 22.365205l-1.535808-1.75978c3.295588 3.743532 6.527184 7.551056 9.726784 11.422572l-8.190976-9.662792a514.687664 514.687664 0 0 1 28.028496 35.227596l-1.471816-1.983752a513.43982 513.43982 0 0 1 16.477941 23.805025l-5.535308-8.31896a512.735908 512.735908 0 0 1 41.690788 74.006749l0.735908 1.663792-811.738532 589.270341a515.295588 515.295588 0 0 1-1.75978-1.5998l-8.574929-8.126984a515.135608 515.135608 0 0 1-8.95888-8.862892l6.71916 6.655168a515.135608 515.135608 0 0 1-9.5988-9.5988l2.87964 2.943632a515.135608 515.135608 0 0 1-11.03862-11.550557l8.15898 8.638921c-3.711536-3.83952-7.35908-7.743032-10.942632-11.678541l2.783652 3.03962a514.975628 514.975628 0 0 1-39.611048-48.377952l2.23972 3.103612c-3.1996-4.351456-6.303212-8.766904-9.374829-13.214348l7.135109 10.110736c-3.071616-4.255468-6.07924-8.542932-9.022873-12.894389l1.91976 2.783653a512.7999 512.7999 0 0 1-7.903012-11.838521l5.983252 9.054868a512.671916 512.671916 0 0 1-7.35908-11.1986l1.375828 2.175728c-2.655668-4.127484-5.27934-8.31896-7.807024-12.47844l6.3992 10.302712a512.031996 512.031996 0 0 1-21.43732-36.7954l-0.63992-1.311836L877.778598 153.83677z" fill="#FFFFFF"></path><path d="M512.00032 0.127984c25.27684 0 50.105737 1.823772 74.390701 5.375328v439.209099l433.097863-0.031996 0.255968 1.951756-0.255968-1.91976c1.535808 11.710536 2.687664 23.549056 3.423572 35.483565l-0.31996-4.895389c0.415948 5.887264 0.703912 11.806524 0.95988 17.757781l-0.63992-12.862392c0.31996 5.5993 0.575928 11.1986 0.735908 16.861892L1023.872336 511.936008l-0.223972 15.134108c-0.15998 5.663292-0.415948 11.294588-0.767904 16.893888l0.63992-13.27834a517.5993 517.5993 0 0 1-9.43882 81.36583H586.391021v406.445194l-1.503812 0.223972-12.542432 1.631796c-4.447444 0.511936-8.894888 0.95988-13.374328 1.407824l12.15848-1.27984a514.047744 514.047744 0 0 1-45.882265 3.1996L511.936328 1023.872016l-14.462192-0.191976a518.783152 518.783152 0 0 1-31.100113-1.823772l9.822772 0.7999a515.391576 515.391576 0 0 1-11.134608-0.895888l1.311836 0.095988a513.5998 513.5998 0 0 1-15.870016-1.631796l14.55818 1.535808a513.535808 513.535808 0 0 1-15.67804-1.663792l1.11986 0.127984a511.936008 511.936008 0 0 1-12.15848-1.5998l-3.295588-0.47994V611.891514H9.887084a514.367704 514.367704 0 0 1-5.311336-167.371079h430.570179V5.887264c25.052868-3.775528 50.745657-5.75928 76.886389-5.75928z" fill="#CF142B"></path><path d="M380.272786 672.555931v26.140732L144.942202 868.819398c-14.07824-14.462192-27.292588-29.75628-39.579052-45.754281l207.494063-150.541182h67.447569z m431.530059 0l140.270466 100.979377a512.991876 512.991876 0 0 1-34.235721 50.361705l-208.997875-151.341082h102.96313z m83.701537-499.649544c13.374328 15.070116 25.852768 30.972128 37.371329 47.578052l-227.299588 163.595551H641.20017v-28.540432zM90.900957 220.644419l225.027872 163.435571h-103.987002L58.936953 273.181852c9.5988-18.173728 20.285464-35.739533 31.932008-52.537433z" fill="#CF142B"></path></svg>