<svg xmlns="http://www.w3.org/2000/svg" viewBox="0 0 1024 1024"><path d="M511.968002 0c282.766327 0 511.968002 229.233673 511.968002 511.968002L0 512.031998C0 229.233673 229.201675 0 511.968002 0z" fill="#F42A41"></path><path d="M1023.936004 512.031998l-0.095994 10.015374C1018.464346 800.141991 791.342541 1023.936004 511.968002 1023.936004c-282.766327 0-511.968002-229.201675-511.968002-511.968002L1023.936004 512.031998zM184.052497 244.784701c24.702456-103.225548 130.935817-167.477533 237.233173-143.479033-74.87532 33.725892-122.87232 106.617336-122.872321 186.804325 0 80.218986 47.933004 153.174427 122.872321 186.996313a203.443285 203.443285 0 0 1-89.466409 0c-106.329354-23.9985-172.469221-127.096056-147.766764-230.321605z m260.655709 95.130054l11.423286 34.39785h37.341666l-30.07812 21.182677 11.423286 34.39785-30.110118-21.27867-30.07812 21.27867 11.455284-34.39785-30.07812-21.182677h37.181676l11.51928-34.39785z m136.63146 0l11.487282 34.39785h37.341666l-30.174114 21.182677 11.423286 34.39785-30.07812-21.27867-30.07812 21.27867 11.51928-34.39785-30.07812-21.182677h37.181676l11.423286-34.39785z m42.045372-127.128054l11.51928 34.39785h37.181677l-30.07812 21.27867 11.551278 34.333854-30.174115-21.27867-30.110118 21.27867 11.51928-34.333854-30.07812-21.27867h37.213674l11.455284-34.39785z m-221.650146 0l11.51928 34.39785h37.11768l-30.07812 21.27867 11.487282 34.333854-30.046122-21.27867-30.078121 21.27867 11.487282-34.333854-30.110118-21.27867h37.117681l11.583276-34.39785z m111.83301-79.739016l11.35929 34.39785h37.341666l-30.110118 21.182676 11.423286 34.333854-30.014124-21.214674-30.206112 21.214674 11.51928-34.39785-30.07812-21.11868h37.245672l11.51928-34.39785z" fill="#FFFFFF"></path></svg>