<svg xmlns="http://www.w3.org/2000/svg" viewBox="0 0 1024 1024"><path d="M512 512m-512 0a512 512 0 1 0 1024 0 512 512 0 1 0-1024 0Z" fill="#0049A3"></path><path d="M408.32 10.496V175.36h311.04v170.88h-311.04v199.68H252.928v-199.68H27.424l0.544-1.6-0.544 1.6a508.32 508.32 0 0 1 21.824-53.664l2.784-5.76 5.696-11.2a511.2 511.2 0 0 1 30.368-50.816l1.984-2.944 7.776-10.944c6.08-8.416 12.48-16.64 19.072-24.64l-1.152 1.44c3.296-4.032 6.624-8 10.048-11.872l0.416-0.512h126.72V70.304l1.6-0.96-1.6 0.96c13.472-7.936 27.36-15.264 41.6-21.952l-3.584 1.696c4.576-2.176 9.152-4.288 13.76-6.336l-10.144 4.64a509.248 509.248 0 0 1 69.664-26.688l-1.856 0.576c4.704-1.44 9.472-2.816 14.24-4.128l-12.384 3.552c5.728-1.728 11.488-3.328 17.28-4.864l-4.896 1.312c4.48-1.216 9.024-2.4 13.568-3.52l-8.672 2.24c4.192-1.12 8.448-2.176 12.704-3.2l-4.032 0.96c5.888-1.408 11.776-2.752 17.696-3.968l-13.664 3.008c4.672-1.088 9.344-2.112 14.08-3.104z" fill="#FFFFFF"></path><path d="M204.288 102.752l515.04 377.6v65.536h-89.952L125.376 176.32l2.24-2.496 6.784-7.584 1.856-2.016 10.08-10.56 10.304-10.24a515.2 515.2 0 0 1 47.648-40.64z" fill="#FFFFFF"></path><path d="M589.248 5.76a512 512 0 0 1 0.64 0.128l14.336 2.4c5.76 1.056 11.52 2.208 17.216 3.424l-13.888-2.816a509.184 509.184 0 0 1 48.8 11.744l-2.784-0.832c5.632 1.632 11.232 3.36 16.8 5.152L656.32 20.64a507.936 507.936 0 0 1 61.344 22.336L31.904 545.92H1.12A519.68 519.68 0 0 1 0 512l0.16-13.12c0.16-5.92 0.416-11.808 0.736-17.632l-0.576 12.416a517.92 517.92 0 0 1 3.776-46.816l1.92-13.44z" fill="#FFFFFF"></path><path d="M376 18.24l-0.032 192.672h343.36v99.744H376v235.232H285.28V310.656h-244.16l0.48-1.152-0.48 1.152c4.48-10.496 9.28-20.8 14.464-30.88l-1.248 2.432c2.464-4.896 5.024-9.76 7.616-14.56l-6.4 12.128a510.624 510.624 0 0 1 33.824-56.864l8.48-12h187.424V52.8l13.44-6.4c4.928-2.24 9.92-4.48 14.944-6.56l-12.672 5.536c5.12-2.336 10.336-4.576 15.584-6.752l-2.912 1.216c4.832-2.048 9.728-4 14.656-5.92l-11.744 4.704c4.48-1.856 8.96-3.648 13.472-5.344l-1.728 0.64c4.928-1.888 9.92-3.712 14.912-5.44l-13.184 4.8c5.152-1.984 10.368-3.84 15.584-5.664l-2.4 0.864c5.44-1.92 10.944-3.712 16.448-5.44l-14.048 4.576c5.152-1.76 10.336-3.456 15.584-5.056l14.784-4.288z" fill="#CF142B"></path><path d="M252.96 346.24v15.648L1.6 545.664A518.816 518.816 0 0 1 0 507.424l0.096-5.856 212.48-155.36h40.384z m257.44 0l208.96 152.896v45.024l-270.464-197.92h61.504zM611.584 9.664c15.616 3.104 31.008 6.88 46.08 11.36l-210.88 154.336H408.32v-17.024zM162.624 137.728l51.52 37.632H152.64l-15.936-11.648c8.32-8.96 16.96-17.632 25.92-25.984z" fill="#CF142B"></path><path d="M428.384 665.6l23.36 73.6 71.04-27.424-42.016 64.288 65.376 39.52-75.744 6.656 10.368 76.384-52.384-55.84-52.384 55.84 10.368-76.384-75.52-6.656 65.152-39.52-42.016-64.288 71.232 27.392 23.168-73.568z m352.256 52.032l11.392 36 34.56-13.344-20.384 31.456 31.84 19.136-37.024 3.328 5.184 37.408-25.6-27.392-25.568 27.392 5.024-37.408-36.992-3.328 32-19.136-20.608-31.456 34.752 13.344 11.424-36z m60.16-234.24l11.232 35.968 34.752-13.504-20.576 31.424 32.16 19.328-37.152 3.136 5.184 37.6-25.6-27.392-25.76 27.392 5.184-37.6-36.992-3.136 32-19.328-20.576-31.424 34.56 13.504 11.584-36z m43.392-186.624l8.832 21.76 23.168 1.76-17.824 15.296 5.728 22.816-19.904-12.48-19.52 12.48 5.536-22.816-17.824-15.296 23.168-1.76 8.64-21.76z" fill="#FFFFFF"></path></svg>