<svg xmlns="http://www.w3.org/2000/svg" viewBox="0 0 1024 1024"><path d="M511.99936 0.00064c106.815866 0 205.951743 32.703959 287.99964 88.639889v846.718942A509.631363 509.631363 0 0 1 511.99936 1023.99936a509.631363 509.631363 0 0 1-287.99964-88.639889V88.640529A509.631363 509.631363 0 0 1 511.99936 0.00064z" fill="#FFFFFF"></path><path d="M511.99936 731.647725h8.22399l-2.463997-102.975871 7.391991-6.431992c32.927959 3.999995 62.559922 7.231991 95.45588 11.263986l-8.223989-28.159965c-1.631998-4.831994 0.831999-10.463987 4.127994-13.695983L711.96711 512l-19.743975-9.663988c-9.055989-3.199996-6.591992-8.03199-3.295996-20.095975l14.815981-53.919932-55.135931 12.063985c-5.759993 0.799999-9.055989-2.399997-9.887987-5.631993l-7.391991-25.727968-43.615946 49.887937c-6.591992 8.03199-18.943976 8.03199-14.815981-10.463987l18.911976-102.207872-25.503968 13.695983c-7.391991 4.031995-13.983983 4.799994-18.111977-2.431997L511.99936 291.552276l-35.391956 65.951917c-4.095995 7.263991-10.687987 6.463992-18.079977 2.431997l-25.535968-13.695983 18.943976 102.207872c4.095995 18.495977-9.055989 18.495977-14.815981 10.463987l-43.615946-49.919937-7.391991 25.759968a8.671989 8.671989 0 0 1-9.887987 6.431992l-55.96793-12.063985 14.815981 53.919932c3.295996 12.063985 5.759993 16.895979-3.295996 20.095975l-19.743975 9.663988 95.455881 79.6799c4.127995 3.199996 5.759993 7.99999 4.127994 13.663983l-8.223989 28.159965c32.895959-4.031995 62.527922-7.231991 95.45588-11.263986l7.391991 6.399992-2.463997 103.039871H511.99936v-0.831999zM736.15908 51.552576C906.590867 134.720472 1023.99872 309.632253 1023.99872 512s-117.439853 377.311528-287.83964 460.447424zM288.03164 51.456576C117.503853 134.528472 0 309.536253 0 512S117.503853 889.471528 287.99964 972.543424z" fill="#DC243B"></path></svg>