<svg xmlns="http://www.w3.org/2000/svg" viewBox="0 0 1024 1024"><path d="M512 0c282.784 0 512 229.216 512 512s-229.216 512-512 512S0 794.784 0 512 229.216 0 512 0z" fill="#DE2910"></path><path d="M505.28 509.088l8.32 8.128-8.32 8.096-8.32-8.096z" fill="#FF0000"></path><path d="M505.28 517.216c-77.12-30.72-114.016-125.952-81.728-200.864 17.568-41.088 82.656-97.952 162.496-78.08-30.912 15.328-51.68 36.096-31.36 65.888 22.144 32.48 11.52 81.696-30.944 101.536-33.696 14.912-62.784 71.776-18.464 111.52z" fill="#FFFFFF"></path><path d="M503.904 518.56c-16.16-13.12-42.016-26.624-48.48-78.56l-0.928-16.672c0-28 6.912-49.952 20.8-65.92l2.752-0.448v2.72a63.392 63.392 0 0 0-10.176 16.224 109.888 109.888 0 0 0-10.144 46.944l0.928 15.808c6.464 50.56 30.464 62.72 47.072 75.84l0.48 2.72-1.408 0.448h-0.896v0.896z m-23.104-205.376l13.408 11.744 15.232-9.056-7.392 15.808 13.376 11.744-17.536-1.824-7.36 15.808-3.712-16.704-17.536-1.792 15.232-9.024-3.712-16.704z" fill="#FF0000"></path><path d="M505.28 517.216c5.984-81.28 87.232-144.896 169.888-138.144 45.216 3.616 120.48 46.944 125.568 127.296-24-24.384-50.784-37.024-73.408-9.024-24.96 30.688-75.712 36.096-108.032 2.24-24.928-26.176-89.088-36.096-114.016 17.6z" fill="#FFFFFF"></path><path d="M503.424 516.288c7.392-18.944 12.928-47.84 61.408-69.504l15.68-5.856c40.64-12.64 70.176-0.928 70.176-0.448l0.928 2.24-2.304 0.896a77.568 77.568 0 0 0-18.944-4.064 117.152 117.152 0 0 0-48.928 4.992l-15.232 5.856c-47.072 21.664-51.712 47.84-59.52 67.712l-2.336 1.344-1.376-1.344 0.448-1.824z m192.032-84.384l-6.912 15.776 13.376 11.744-17.536-1.792-7.36 15.776-3.712-17.152-17.536-1.792 15.232-9.024-3.712-17.152 13.408 11.712 14.752-8.096z" fill="#FF0000"></path><path d="M505.28 517.216c80.768-19.424 167.104 36.992 186.048 116.448 10.144 43.328-8.8 126.816-85.44 156.16 16.192-29.76 20.352-58.656-13.376-71.296a69.344 69.344 0 0 1-35.072-100.224c18.016-31.584 7.36-94.336-52.16-101.12z" fill="#FFFFFF"></path><path d="M505.28 515.392c20.768 1.344 50.304-2.72 86.336 35.648l10.592 12.64c24.96 33.856 22.624 65.024 22.624 65.472l-2.304 1.792-1.856-1.792a74.88 74.88 0 0 0-1.824-18.976 110.176 110.176 0 0 0-19.84-43.776l-10.176-12.64c-35.52-37.44-62.336-33.408-83.552-34.752l-1.856-1.792 0.928-1.376 0.928-0.448z m140.8 153.472l-17.536-1.792-7.392 15.776-3.712-17.152-17.536-1.792 15.232-8.576-3.68-17.152 13.376 11.744 15.232-9.056-7.36 15.808 13.376 12.16z" fill="#FF0000"></path><path d="M505.28 517.216c43.392 69.504 15.68 167.456-55.872 209.408-38.752 23.04-125.568 30.72-178.176-31.584 33.696 5.856 63.232 0.896 65.088-34.752 1.856-38.816 40.16-72.672 86.336-63.648 36.48 7.232 94.176-21.664 82.624-79.424z" fill="#FFFFFF"></path><path d="M507.136 516.736c5.536 19.872 17.984 46.08-8.32 91.648l-9.248 13.984c-25.376 33.856-56.32 41.088-56.768 41.088l-2.304-1.376 1.376-2.24a76.8 76.8 0 0 0 18.016-7.68c10.624-5.856 24-15.808 36.48-32.032l8.736-13.568c25.408-44.224 13.408-68.16 7.872-88.896l1.376-2.24 1.376 0.416 1.408 0.896z m-105.728 178.752l-3.68-17.152-17.568-1.792 15.232-8.576-3.68-17.152 13.376 11.712 15.232-8.576-7.36 15.808 12.928 11.744-17.568-1.824-6.912 15.808z" fill="#FF0000"></path><path d="M505.28 517.216c-54.016 61.824-157.888 65.888-220.192 11.712-34.176-29.344-68.32-107.872-24-175.584 4.608 33.408 18.464 59.136 53.536 50.112 38.304-9.92 82.624 15.36 88.16 60.928 4.16 36.128 49.856 81.28 102.496 52.8z" fill="#FFFFFF"></path><path d="M506.208 518.56c-17.536 10.816-39.232 30.688-91.424 20.32l-16.16-4.064c-40.608-13.12-56.768-40.192-57.216-40.192l0.448-2.688 2.784 0.448c2.464 4.192 6.752 9.024 12.928 14.432 8.768 8.128 22.592 17.6 42.464 24.384l15.68 4.064c50.784 9.92 70.176-8.576 88.64-19.84l2.784 0.416v1.824l-0.96 0.896zM300.32 475.2l15.232-8.576-3.712-17.152 13.408 11.712 15.232-8.576-7.392 15.808 13.376 11.744-17.536-1.824-7.36 15.808-3.712-17.152-17.536-1.792z" fill="#FF0000"></path></svg>