<svg xmlns="http://www.w3.org/2000/svg" viewBox="0 0 1024 1024"><path d="M512 512m-512 0a512 512 0 1 0 1024 0 512 512 0 1 0-1024 0Z" fill="#FFFFFF"></path><path d="M805.472 931.584c-38.368 26.88-80.608 48.64-125.696 64.32H344.224a510.368 510.368 0 0 1-125.696-64.32z m128.384-129.344a514.496 514.496 0 0 1-52.48 64.32H142.624a514.496 514.496 0 0 1-52.448-64.32z m64.32-129.312a508.704 508.704 0 0 1-26.24 64.224H52.064a508.704 508.704 0 0 1-26.24-64.224z m24.832-128.544a512.544 512.544 0 0 1-8.128 64.256H9.12a512.544 512.544 0 0 1-8.128-64.256z m-8.192-129.376c4.032 21.024 6.784 42.464 8.16 64.32H1.024c1.376-21.856 4.128-43.296 8.16-64.32z m-43.424-129.28c10.24 20.64 19.072 42.112 26.432 64.256H26.176c7.36-22.144 16.224-43.616 26.432-64.288zM881.28 157.312a514.496 514.496 0 0 1 52.48 64.256H90.24a514.496 514.496 0 0 1 52.48-64.256zM679.264 27.936a510.464 510.464 0 0 1 131.36 68.128H213.376A510.464 510.464 0 0 1 344.736 27.936z" fill="#D02F44"></path><path d="M608.096 95.968V576H3.936A517.056 517.056 0 0 1 0 512C0 340.576 84.224 188.864 213.568 95.936h394.56z" fill="#00479F"></path><path d="M524.224 454.336l8.896 29.12 27.68 0.96-22.272 18.24 7.968 29.088-22.272-17.248-22.272 17.248 7.968-29.12-22.272-18.208 27.68-0.96 8.896-29.12z m-145.984-0.16l8.928 28.288h27.648l-22.24 18.24 7.936 28.256-22.272-17.216-22.24 17.216 7.936-28.288-22.24-18.208h27.648l8.896-28.288z m-146.752 0l8.896 28.288h27.68l-22.272 18.24 7.968 28.256-22.272-17.216-22.272 17.216 7.968-28.288-22.272-18.208h27.68l8.896-28.288z m-146.112 0l8.896 28.288h27.648l-22.24 18.24 7.936 28.256-22.24-17.216-22.272 17.216 7.936-28.288-22.24-18.208h27.648l8.928-28.288z m385.408-78.208l8.928 28.288h27.648l-22.24 18.208 7.936 28.288-22.272-17.216-22.24 17.216 7.936-28.288-22.272-18.24h27.68l8.896-28.256z m-163.776 0l8.928 28.288h27.648l-22.272 18.208 7.968 28.288-22.272-17.216-22.24 17.216 7.936-28.288-22.272-18.24h27.68l8.896-28.256z m-164.576 0l8.928 28.288h27.648l-22.24 18.208 7.936 28.288-22.272-17.216-22.24 17.216 7.936-28.288-22.24-18.24h27.648l8.896-28.256z m381.76-79.2l8.96 29.12 27.648 0.96-22.272 18.24 7.968 29.088-22.272-17.248-22.272 17.248 7.968-29.12-22.272-18.208 27.68-0.96 8.896-29.12z m-145.92 0.8l8.896 28.32h27.648l-22.24 18.208 7.936 28.288-22.272-17.248-22.24 17.248 7.936-28.288-22.24-18.24h27.648l8.896-28.288z m-292.896 0l8.896 28.32h27.648l-22.24 18.208 7.936 28.288-22.24-17.248-22.272 17.248 7.936-28.288-22.24-18.24h27.648l8.928-28.288z m146.112-0.8l8.896 28.288h27.68l-22.272 18.24 7.968 28.288-22.272-16.448-22.272 16.448 7.968-28.32-22.272-18.208h27.68l8.896-28.288z m239.296-78.4l8.928 28.32h27.648l-22.24 18.24 7.936 28.256-22.272-17.216-22.24 17.216 7.936-28.288-22.272-18.208h27.68l8.896-28.288z m-163.776 0l8.928 28.32h27.648l-22.272 18.24 7.968 28.256-22.272-17.216-22.24 17.216 7.936-28.288-22.272-18.208h27.68l8.896-28.288z m-164.576 0l8.928 28.32h27.648l-22.24 18.24 7.936 28.256-22.272-17.216-22.24 17.216 7.936-28.288-22.24-18.208h27.648l8.896-28.288z m381.76-78.176l8.96 29.12 27.648 0.96-22.272 18.208 7.968 29.12-22.272-17.28-22.272 17.28 7.968-29.12-22.272-18.24 27.68-0.96 8.896-29.12z m-145.92 0l8.896 28.288h27.648l-22.24 18.208 7.936 28.288-22.272-17.248-22.24 17.28 7.936-28.32-22.24-18.24h27.648l8.896-28.256z m-146.784 0l8.896 28.288h27.68l-22.272 18.208 7.968 28.288-22.272-17.248-22.272 17.28 7.968-28.32-22.272-18.24h27.68l8.896-28.256z" fill="#FFFFFF"></path></svg>